<svg id="Calque_1" data-name="Calque 1" xmlns="http://www.w3.org/2000/svg" viewBox="0 0 600 600"><defs><style>.cls-1{fill:#db4549;}</style></defs><title>Plan de travail 3</title><rect class="cls-1" width="600" height="600"/><path d="M177.48,265.84c0,14.64-12.36,23.16-35.52,23.16H94.68V205h44.88c23.16,0,34,9.24,34,22,0,7.8-4,14.28-11.64,18.12C171.72,248.68,177.48,255.88,177.48,265.84Zm-55-41v12.48h13.2c6.36,0,9.24-2.16,9.24-6.24s-2.88-6.24-9.24-6.24Zm26.4,37.8c0-4.32-3.12-6.6-9.36-6.6h-17v13.2h17C145.8,269.2,148.92,266.92,148.92,262.6Z"/><path d="M193.8,247c0-25.44,20-43.92,47.4-43.92s47.4,18.48,47.4,43.92-20,43.92-47.4,43.92S193.8,272.44,193.8,247Z"/><path d="M305.28,247c0-25.44,20-43.92,47.4-43.92s47.4,18.48,47.4,43.92-20,43.92-47.4,43.92S305.28,272.44,305.28,247Z"/><path d="M454.32,261.16,448,268.24V289H420.12V205H448v30.48L475.56,205H506.4l-33.6,37,35.28,47H475.32Z"/><path d="M89.4,388.28l9.12-20.64a57.63,57.63,0,0,0,27.72,7.68c8,0,10.92-1.68,10.92-4.56,0-10.56-46.44-2-46.44-33.36,0-15.6,13.08-28.32,39.12-28.32,11.28,0,22.92,2.4,31.68,7.32L153,336.92c-8.28-4.2-16.08-6.24-23.4-6.24-8.28,0-10.92,2.4-10.92,5.28,0,10.08,46.44,1.68,46.44,32.64,0,15.36-13.08,28.32-39.12,28.32C112,396.92,97.8,393.44,89.4,388.28Z"/><path d="M190.56,333H166V311h77.52v22h-24.6v62H190.56Z"/><path d="M246.24,353c0-25.44,20-43.92,47.4-43.92S341,327.56,341,353s-20,43.92-47.4,43.92S246.24,378.44,246.24,353Z"/><path d="M387.36,373.88h-7.68V395H351.36V311H391.8c23.4,0,38.28,12.24,38.28,31.68,0,12.12-5.76,21.24-15.84,26.4L431.88,395H401.64Zm2.64-41H379.68v19.68H390c7.8,0,11.52-3.72,11.52-9.84S397.8,332.84,390,332.84Z"/><path d="M510.6,373.64V395H440.76V311H509v21.36H468.6v9.84h35.52v20.4H468.6v11Z"/><path d="M554.5,458.5H45.5v-317h509Zm-489-20h469v-277H65.5Z"/></svg>