<svg xmlns="http://www.w3.org/2000/svg" viewBox="0 0 509 317"><title>BookStore</title><path d="M132,124.34c0,14.64-12.36,23.16-35.52,23.16H49.18v-84H94.06c23.16,0,34,9.24,34,22,0,7.8-4,14.28-11.64,18.12C126.22,107.18,132,114.38,132,124.34Zm-55-41V95.78h13.2c6.36,0,9.24-2.16,9.24-6.24s-2.88-6.24-9.24-6.24Zm26.4,37.8c0-4.32-3.12-6.6-9.36-6.6H77v13.2h17C100.3,127.7,103.42,125.42,103.42,121.1Z"/><path d="M148.3,105.5c0-25.44,20-43.92,47.4-43.92s47.4,18.48,47.4,43.92-20,43.92-47.4,43.92S148.3,130.94,148.3,105.5Z"/><path d="M259.78,105.5c0-25.44,20-43.92,47.4-43.92s47.4,18.48,47.4,43.92-20,43.92-47.4,43.92S259.78,130.94,259.78,105.5Z"/><path d="M408.82,119.66l-6.36,7.08V147.5H374.62v-84h27.84V94l27.6-30.48H460.9l-33.6,37,35.28,47H429.82Z"/><path d="M43.9,246.78,53,226.14a57.63,57.63,0,0,0,27.72,7.68c8,0,10.92-1.68,10.92-4.56,0-10.56-46.44-2-46.44-33.36,0-15.6,13.08-28.32,39.12-28.32,11.28,0,22.92,2.4,31.68,7.32l-8.52,20.52c-8.28-4.2-16.08-6.24-23.4-6.24-8.28,0-10.92,2.4-10.92,5.28,0,10.08,46.44,1.68,46.44,32.64,0,15.36-13.08,28.32-39.12,28.32C66.46,255.42,52.3,251.94,43.9,246.78Z"/><path d="M145.06,191.46h-24.6v-22H198v22h-24.6v62H145.06Z"/><path d="M200.74,211.5c0-25.44,20-43.92,47.4-43.92s47.4,18.48,47.4,43.92-20,43.92-47.4,43.92S200.74,236.94,200.74,211.5Z"/><path d="M341.86,232.38h-7.68V253.5H305.86v-84H346.3c23.4,0,38.28,12.24,38.28,31.68,0,12.12-5.76,21.24-15.84,26.4l17.64,25.92H356.14Zm2.64-41H334.18V211H344.5c7.8,0,11.52-3.72,11.52-9.84S352.3,191.34,344.5,191.34Z"/><path d="M465.1,232.14V253.5H395.26v-84h68.28v21.36H423.1v9.84h35.52v20.4H423.1v11Z"/><path d="M509,317H0V0H509ZM20,297H489V20H20Z"/></svg>